<svg width="517" height="643" viewBox="0 0 517 643" fill="none" xmlns="http://www.w3.org/2000/svg">
<path d="M257.5 643C399.713 643 515 635.991 515 627.344C515 618.698 399.713 611.689 257.5 611.689C115.287 611.689 0 618.698 0 627.344C0 635.991 115.287 643 257.5 643Z" fill="#CED3E6"/>
<path d="M241.446 191.369L267.456 286.44L258.176 275.76C261.607 277.59 265.589 278.994 269.98 279.971C274.372 280.966 279.172 281.535 284.185 281.784C289.199 282.05 294.425 281.997 299.777 281.784C305.128 281.553 310.586 281.162 316.133 280.682H316.168C324.346 279.989 331.546 286.049 332.24 294.223C332.898 302.024 327.368 308.919 319.777 310.163C314.053 311.069 308.239 311.94 302.283 312.633C296.31 313.326 290.194 313.841 283.865 313.984C277.536 314.126 270.976 313.877 264.185 312.899C257.411 311.922 250.389 310.145 243.526 307.195C239.135 305.294 236.006 301.704 234.584 297.493L234.246 296.498L203.045 203.008C199.543 192.506 205.214 181.133 215.739 177.632C226.246 174.131 237.624 179.8 241.126 190.32C241.233 190.64 241.357 191.031 241.446 191.369Z" fill="#EA9B7A"/>
<path d="M251.455 536.005C251.064 536.005 250.673 535.934 250.282 535.792L114.03 486.693C112.252 486.053 111.327 484.081 111.967 482.303C112.607 480.526 114.581 479.585 116.359 480.242L252.611 529.341C254.389 529.981 255.331 531.954 254.673 533.731C254.193 535.135 252.86 536.005 251.455 536.005Z" fill="#C77E2E"/>
<path d="M109.532 536.005C108.127 536.005 106.812 535.135 106.296 533.731C105.656 531.954 106.581 529.981 108.358 529.324L246.229 479.407C248.006 478.767 249.98 479.691 250.638 481.468C251.278 483.245 250.353 485.218 248.575 485.875L110.705 535.792C110.314 535.934 109.923 536.005 109.532 536.005Z" fill="#C77E2E"/>
<path d="M263.58 623.755C260.682 623.755 258.158 621.605 257.749 618.655L233.144 434.964H130.154L105.923 618.655C105.496 621.871 102.545 624.146 99.327 623.719C96.1092 623.293 93.8336 620.343 94.2602 617.127L119.168 428.353C119.559 425.421 122.048 423.235 124.999 423.235H238.3C241.251 423.235 243.74 425.421 244.131 428.335L269.429 617.109C269.856 620.325 267.598 623.293 264.38 623.719C264.096 623.737 263.847 623.755 263.58 623.755Z" fill="#FAAF3A"/>
<path d="M205.481 429.099H131.897C108.59 429.099 83.6288 416.34 80.0376 393.328C75.2553 362.532 74.0642 332.731 75.3975 305.365C76.9087 274.427 91.7002 245.639 116.021 226.447C116.021 226.447 130.723 290.473 112.234 378.845C119.31 412.395 205.481 429.099 205.481 429.099Z" fill="#FAAF3A"/>
<path d="M190.138 53.5954C190.138 53.5954 181.391 32.5198 158.226 36.5004C142.048 39.2725 135.15 59.424 136.092 90.5576C137.479 135.854 122.154 163.149 122.154 163.149L142.493 167.77C142.51 167.752 194.298 90.0956 190.138 53.5954Z" fill="#39393B"/>
<path d="M375.708 545.05H342.836C342.836 545.05 335.226 508.585 332.684 488.15C330.124 467.696 328.809 419.236 328.809 419.236C328.809 419.236 302.621 427.748 247.793 424.532C126.314 417.442 172.378 328.235 172.378 328.235C176.485 333.904 201.623 329.976 218.815 332.677C271.563 337.742 317.288 358.427 344.738 370.262C351.351 373.105 357.218 376.126 362.374 379.307C368.987 383.376 373.13 395.762 375.636 412.022C383.121 460.908 375.708 545.05 375.708 545.05Z" fill="#39393B"/>
<path d="M346.925 527.475C346.373 527.475 345.893 527.084 345.769 526.534C341.022 503.077 339.44 473.88 338.16 450.423C337.093 430.965 336.098 412.591 333.591 410.387C331.564 408.592 323.155 409.996 312.524 411.755C291.35 415.274 259.349 420.569 224.077 412.377C204.859 407.899 190.725 398.57 182.085 384.638C167.169 360.612 173.978 330.812 174.049 330.51C174.191 329.87 174.831 329.479 175.471 329.639C176.111 329.781 176.502 330.421 176.342 331.06C176.271 331.345 169.711 360.222 184.111 383.412C192.414 396.793 206.05 405.767 224.628 410.085C259.456 418.188 291.172 412.928 312.168 409.445C324.737 407.366 332.329 406.104 335.191 408.628C338.284 411.364 339.155 424.799 340.542 450.299C341.822 473.685 343.404 502.775 348.116 526.072C348.24 526.711 347.831 527.333 347.191 527.458C347.067 527.475 346.996 527.475 346.925 527.475Z" fill="#585859"/>
<path d="M376.33 528.097H376.312L339.76 527.315C339.102 527.298 338.587 526.764 338.604 526.107C338.622 525.449 339.155 524.934 339.813 524.952L376.365 525.734C377.023 525.752 377.539 526.285 377.521 526.942C377.503 527.582 376.97 528.097 376.33 528.097Z" fill="#585859"/>
<path d="M374.801 587.13H351.6L347.138 559.942L344.684 545.05H373.503L373.965 559.942L374.801 587.13Z" fill="#EA9B7A"/>
<path d="M374.801 587.13H351.6L348.276 566.89L347.138 559.942H373.965L374.196 567.139L374.801 587.13Z" fill="#FAAF3A"/>
<path d="M374.196 567.139L348.276 566.89L347.138 559.942H373.965L374.196 567.139Z" fill="#C77E2E"/>
<path d="M432.047 623.755H344.311C343.653 622.564 343.298 620.894 343.156 618.886C342.604 611.458 344.969 599.623 346.125 592.159C346.267 591.288 346.391 590.471 346.48 589.742C346.64 588.498 346.747 587.45 346.747 586.686C346.747 580.591 352.134 581.639 352.134 581.639C361.005 590.347 371.067 577.285 376.934 581.568C376.934 581.568 377.165 581.746 377.716 582.154C378.214 582.545 378.961 583.15 379.992 584.02C381.485 585.264 383.583 587.077 386.428 589.636C393.397 595.909 405.237 600.031 415.317 604.243C416.597 604.776 417.789 605.327 418.909 605.86C419.744 606.269 420.544 606.677 421.291 607.068C429.54 611.511 432.153 615.776 432.758 618.868C433.345 621.853 432.047 623.755 432.047 623.755Z" fill="#0875F7"/>
<path d="M421.309 607.086C419.051 608.881 414.02 612.488 409.984 612.488C409.806 612.488 409.628 612.488 409.451 612.47C406.606 612.239 396.152 607.104 387.637 602.43C382.765 599.747 378.303 597.117 375.103 595.002C369.858 591.537 368.934 590.222 368.738 589.298C367.974 585.833 373.699 583.434 377.716 582.172C378.214 582.563 378.961 583.167 379.992 584.038C375.014 585.388 370.907 587.521 371.103 588.747C371.601 589.778 376.792 593.723 389.201 600.529C398.677 605.718 407.655 609.894 409.646 610.071C412.348 610.284 416.313 607.832 418.909 605.895C419.762 606.286 420.562 606.695 421.309 607.086Z" fill="#084FC7"/>
<path d="M432.047 623.755H344.311C343.653 622.564 343.298 620.894 343.156 618.885H432.776C433.345 621.853 432.047 623.755 432.047 623.755Z" fill="#084FC7"/>
<path d="M353.254 623.755H350.64C353.236 620.787 355.671 616.22 355.351 609.716C354.925 601.044 349.734 595.215 346.107 592.159C346.249 591.288 346.373 590.471 346.462 589.742C350.356 592.71 356.916 599.232 357.431 609.609C357.769 615.829 355.725 620.467 353.254 623.755Z" fill="#084FC7"/>
<path d="M384.952 594.825C384.312 594.825 383.708 594.38 383.548 593.723C383.352 592.941 383.832 592.159 384.597 591.964L390.072 590.595C390.855 590.4 391.637 590.88 391.832 591.644C392.028 592.426 391.548 593.208 390.783 593.403L385.308 594.771C385.183 594.807 385.059 594.825 384.952 594.825Z" fill="white"/>
<path d="M379.512 590.275C378.872 590.275 378.268 589.831 378.108 589.174C377.912 588.392 378.392 587.61 379.157 587.414L384.632 586.046C385.414 585.851 386.197 586.33 386.392 587.095C386.588 587.876 386.108 588.658 385.343 588.836L379.868 590.204C379.743 590.258 379.619 590.275 379.512 590.275Z" fill="white"/>
<path d="M390.428 598.005C389.788 598.005 389.183 597.561 389.023 596.904C388.828 596.122 389.308 595.34 390.072 595.162L395.548 593.794C396.33 593.598 397.113 594.078 397.308 594.842C397.504 595.624 397.024 596.406 396.259 596.602L390.783 597.97C390.659 598.006 390.552 598.005 390.428 598.005Z" fill="white"/>
<path d="M395.904 601.08C395.246 601.08 394.659 600.636 394.499 599.978C394.304 599.196 394.784 598.414 395.548 598.219L401.024 596.851C401.806 596.655 402.588 597.135 402.784 597.899C402.979 598.681 402.499 599.463 401.735 599.641L396.259 601.009C396.152 601.062 396.028 601.08 395.904 601.08Z" fill="white"/>
<path d="M401.895 603.905C401.255 603.905 400.65 603.461 400.49 602.803C400.295 602.022 400.775 601.24 401.539 601.062L407.015 599.694C407.797 599.498 408.58 599.978 408.775 600.742C408.971 601.524 408.491 602.306 407.726 602.501L402.25 603.87C402.126 603.887 402.002 603.905 401.895 603.905Z" fill="white"/>
<path d="M408.366 606.322C407.726 606.322 407.122 605.878 406.962 605.22C406.766 604.438 407.246 603.657 408.011 603.461L413.486 602.093C414.269 601.897 415.051 602.377 415.246 603.141C415.442 603.923 414.962 604.705 414.197 604.883L408.722 606.251C408.597 606.304 408.491 606.322 408.366 606.322Z" fill="white"/>
<path d="M111.541 299.945C111.541 299.945 110.51 307.035 120.003 309.025L218.992 312.331C218.992 312.331 225.677 308.972 224.468 300.691C224.468 300.673 182.671 277.199 111.541 299.945Z" fill="#084FC7"/>
<path d="M220.343 332.66C168.964 360.915 112.856 338.169 112.856 338.169C115.594 330.687 117.639 322.246 119.114 314.57C120.821 305.631 121.781 297.741 122.225 293.601C144.075 292.41 197.658 290.118 218.655 295.093L218.815 303.499L220.343 332.66Z" fill="#EA9B7A"/>
<path d="M182.387 319.119C182.014 321.767 180.805 323.793 179.72 323.633C178.618 323.473 178.049 321.198 178.422 318.55C178.796 315.903 180.005 313.877 181.089 314.037C182.191 314.197 182.76 316.471 182.387 319.119Z" fill="#D96C63"/>
<path d="M218.797 303.499C196.912 302.166 153.871 301.704 119.096 314.552C120.803 305.614 121.763 297.724 122.208 293.583C144.057 292.393 197.641 290.1 218.637 295.076L218.797 303.499Z" fill="#D96C63"/>
<path d="M243.206 262.858C242.993 263.498 242.744 264.084 242.46 264.635C242.353 264.848 242.246 265.062 242.14 265.257C239.384 270.357 235.135 274.782 231.562 277.927C230.815 278.585 230.104 279.171 229.446 279.704C228.13 280.771 227.01 281.606 226.246 282.157C225.535 282.654 225.126 282.921 225.126 282.921C225.126 282.974 225.126 283.01 225.108 283.081C225.072 283.454 225.037 283.863 225.001 284.289C224.877 285.906 224.77 287.825 224.699 290.029C224.628 291.788 224.575 293.725 224.539 295.822C224.521 297.368 224.486 298.985 224.468 300.656C195.436 287.683 135.63 295.875 111.541 299.927C111.985 297.848 112.376 295.804 112.75 293.814C114.456 284.627 115.416 276.364 115.79 268.953C116.359 257.936 115.399 241.374 113.052 224.261C112.91 223.142 112.75 222.04 112.59 220.938C112.483 220.209 112.376 219.499 112.252 218.77C111.434 213.403 110.474 208.019 109.389 202.795C104.643 180.013 107.967 156.112 131.079 153.287C132.75 153.073 134.403 152.896 136.021 152.718C146.902 151.563 155.862 151.154 158.351 151.065C158.813 151.047 159.044 151.047 159.044 151.047L203.703 164.02L207.952 165.246C210.388 166.028 212.645 166.792 214.743 167.538C215.632 167.858 216.503 168.178 217.321 168.48C219.49 169.298 221.446 170.079 223.241 170.879C226.815 172.461 229.641 174.007 231.882 175.588C241.677 182.536 240.166 190.391 239.917 205.904C239.917 205.975 239.917 206.047 239.917 206.118C239.917 206.313 239.917 206.509 239.917 206.722C239.917 206.811 239.917 206.899 239.917 206.988C239.917 207.628 239.917 208.25 239.917 208.89C239.935 210.898 240.006 212.888 240.131 214.878C240.291 217.81 240.557 220.725 240.877 223.568C241.002 224.705 241.126 225.843 241.268 226.98C241.393 228.046 241.535 229.095 241.677 230.143C243.42 243.72 245.642 255.626 243.206 262.858Z" fill="#0875F7"/>
<path d="M239.899 206.118C239.899 206.313 239.899 206.508 239.899 206.722C239.899 206.811 239.899 206.899 239.899 206.988C239.899 207.628 239.899 208.25 239.899 208.89L230.513 214.772C230.228 214.949 229.908 215.003 229.588 214.949C229.233 214.896 228.913 214.683 228.699 214.363C228.308 213.741 228.504 212.941 229.108 212.55L239.064 206.313C239.313 206.153 239.615 206.1 239.899 206.118Z" fill="#084FC7"/>
<path d="M178.031 256.372C177.676 256.372 177.32 256.23 177.053 255.945C176.573 255.412 176.609 254.577 177.142 254.097L185.871 246.243C186.405 245.763 187.24 245.799 187.72 246.332C188.2 246.865 188.165 247.7 187.632 248.18L178.902 256.034C178.653 256.248 178.333 256.372 178.031 256.372Z" fill="#084FC7"/>
<path d="M241.642 230.143L235.668 235.527C235.419 235.758 235.099 235.865 234.797 235.865C234.442 235.865 234.086 235.723 233.819 235.438C233.339 234.905 233.375 234.07 233.908 233.59L241.233 226.998C241.357 228.046 241.5 229.094 241.642 230.143Z" fill="#084FC7"/>
<path d="M160.324 224.776C160.129 224.474 160.04 224.101 160.129 223.728C160.289 223.017 161 222.59 161.711 222.75L173.142 225.451C173.853 225.611 174.28 226.322 174.12 227.033C173.96 227.744 173.249 228.17 172.538 228.01L161.106 225.309C160.769 225.238 160.502 225.043 160.324 224.776Z" fill="#084FC7"/>
<path d="M119.523 247.202C119.168 247.202 118.812 247.06 118.545 246.776C118.065 246.243 118.101 245.408 118.634 244.928L127.363 237.073C127.897 236.594 128.732 236.629 129.212 237.162C129.692 237.695 129.657 238.531 129.123 239.01L120.394 246.865C120.145 247.096 119.843 247.202 119.523 247.202Z" fill="#084FC7"/>
<path d="M221.143 245.337C221.25 244.999 221.517 244.697 221.855 244.555C222.512 244.27 223.295 244.572 223.579 245.23L228.273 255.999C228.557 256.656 228.255 257.438 227.597 257.722C226.939 258.007 226.157 257.705 225.872 257.047L221.179 246.278C221.055 245.959 221.055 245.621 221.143 245.337Z" fill="#084FC7"/>
<path d="M243.206 262.858C242.993 263.498 242.744 264.084 242.46 264.635C242.353 264.848 242.246 265.062 242.14 265.257L235.757 263.249C235.437 263.142 235.188 262.929 235.028 262.663C234.851 262.361 234.779 261.97 234.904 261.614C235.117 260.921 235.864 260.548 236.539 260.761L243.206 262.858Z" fill="#084FC7"/>
<path d="M207.152 263.8C207.508 263.764 207.881 263.871 208.165 264.138C208.699 264.617 208.734 265.453 208.254 265.986L200.361 274.675C199.881 275.209 199.045 275.244 198.512 274.764C197.978 274.284 197.943 273.449 198.423 272.916L206.316 264.226C206.548 263.978 206.85 263.836 207.152 263.8Z" fill="#084FC7"/>
<path d="M202.512 243.755C202.156 243.702 201.836 243.488 201.623 243.169C201.232 242.564 201.427 241.747 202.032 241.356L211.988 235.119C212.592 234.728 213.41 234.923 213.801 235.527C214.192 236.132 213.997 236.949 213.392 237.34L203.436 243.577C203.152 243.755 202.814 243.808 202.512 243.755Z" fill="#084FC7"/>
<path d="M208.859 205.94C209.09 206.207 209.232 206.562 209.179 206.953C209.108 207.664 208.45 208.197 207.739 208.108L196.058 206.829C195.347 206.757 194.814 206.1 194.903 205.389C194.974 204.678 195.632 204.145 196.343 204.234L208.023 205.514C208.343 205.549 208.645 205.709 208.859 205.94Z" fill="#084FC7"/>
<path d="M191.881 180.617C191.969 180.262 192.201 179.96 192.538 179.782C193.178 179.444 193.978 179.675 194.316 180.315L199.881 190.657C200.219 191.297 199.987 192.097 199.347 192.434C198.707 192.772 197.907 192.541 197.57 191.901L192.005 181.559C191.827 181.257 191.792 180.919 191.881 180.617Z" fill="#084FC7"/>
<path d="M231.579 277.945C230.833 278.603 230.121 279.189 229.464 279.722L227.935 275.813C227.81 275.493 227.81 275.173 227.935 274.871C228.059 274.533 228.326 274.249 228.681 274.107C229.357 273.84 230.121 274.178 230.388 274.853L231.579 277.945Z" fill="#084FC7"/>
<path d="M124.199 258.042C124.021 257.723 123.985 257.349 124.128 256.976C124.377 256.301 125.123 255.946 125.799 256.194L136.857 260.175C137.532 260.424 137.888 261.17 137.639 261.845C137.39 262.521 136.644 262.876 135.968 262.627L124.91 258.647C124.59 258.558 124.341 258.327 124.199 258.042Z" fill="#084FC7"/>
<path d="M129.603 272.987C129.959 272.987 130.314 273.147 130.581 273.431C131.061 273.964 131.008 274.8 130.474 275.279L121.674 283.063C121.141 283.543 120.305 283.489 119.825 282.956C119.345 282.423 119.399 281.588 119.932 281.108L128.732 273.325C128.981 273.094 129.301 272.987 129.603 272.987Z" fill="#084FC7"/>
<path d="M145.55 285.337C145.764 285.622 145.888 285.995 145.817 286.368C145.693 287.079 145.017 287.559 144.306 287.434L132.732 285.462C132.021 285.337 131.541 284.662 131.666 283.951C131.79 283.241 132.466 282.761 133.177 282.885L144.75 284.858C145.07 284.911 145.355 285.089 145.55 285.337Z" fill="#084FC7"/>
<path d="M155.24 175.411C155.151 175.073 155.186 174.682 155.4 174.362C155.791 173.758 156.608 173.58 157.213 173.971L167.08 180.333C167.684 180.724 167.862 181.541 167.471 182.146C167.08 182.75 166.262 182.928 165.658 182.537L155.791 176.175C155.506 175.979 155.311 175.713 155.24 175.411Z" fill="#084FC7"/>
<path d="M222.584 182.91C222.904 182.732 223.277 182.696 223.65 182.821C224.326 183.069 224.681 183.816 224.45 184.491L220.521 195.562C220.272 196.237 219.526 196.593 218.85 196.362C218.174 196.113 217.819 195.367 218.05 194.691L221.979 183.62C222.086 183.318 222.317 183.07 222.584 182.91Z" fill="#084FC7"/>
<path d="M217.303 168.498L211.241 176.281C210.797 176.85 209.979 176.957 209.41 176.512C208.841 176.068 208.734 175.251 209.179 174.682L214.726 167.574C215.614 167.858 216.486 168.178 217.303 168.498Z" fill="#084FC7"/>
<path d="M157.977 275.884C158.102 276.257 158.422 276.523 158.777 276.595C158.955 276.63 159.151 276.63 159.329 276.559C159.524 276.488 178.529 270.339 198.512 278.62C208.663 282.832 217.695 284.431 225.001 284.289C225.037 283.863 225.073 283.472 225.108 283.081C225.108 283.027 225.126 282.974 225.126 282.939C225.126 282.939 225.535 282.672 226.246 282.174C219.063 282.53 209.872 281.002 199.33 276.648C178.582 268.047 159.453 274.267 158.653 274.533C158.102 274.729 157.8 275.333 157.977 275.884Z" fill="#084FC7"/>
<path d="M203.685 164.02C201.179 167.894 196.023 172.283 185.569 171.537C171.151 170.488 161.657 156.734 158.351 151.083C158.795 151.065 159.044 151.065 159.044 151.065L203.685 164.02Z" fill="#084FC7"/>
<path d="M188.36 189.538C188.787 189.627 189.214 189.68 189.64 189.716C193.623 190.036 196.858 188.881 199.241 186.286C206.174 178.716 203.33 161.443 203.205 160.715C203.099 160.128 202.547 159.737 201.979 159.844C201.392 159.951 201.001 160.501 201.107 161.07C201.143 161.248 203.899 178.041 197.676 184.847C195.738 186.961 193.161 187.868 189.836 187.601C175.862 186.482 160.2 150.994 160.04 150.639C159.809 150.106 159.169 149.857 158.635 150.088C158.102 150.319 157.853 150.959 158.084 151.492C158.689 152.967 173.551 186.535 188.36 189.538Z" fill="white"/>
<path d="M231.882 175.588C230.957 185.824 233.482 202.723 240.095 214.878C239.935 212.266 239.864 209.618 239.9 206.988C239.9 206.899 239.9 206.811 239.9 206.722C239.9 206.455 239.917 206.189 239.917 205.922C240.148 190.409 241.66 182.536 231.882 175.588Z" fill="#EA9B7A"/>
<path d="M149.728 193.607C144.608 213.368 125.87 229.219 113.07 224.279C112.91 223.177 112.767 222.057 112.607 220.956C112.501 220.227 112.394 219.516 112.27 218.788C111.452 213.421 110.492 208.037 109.407 202.812C104.66 180.031 108.003 156.13 131.097 153.304C132.768 153.091 134.421 152.913 136.039 152.736C147.577 157.658 155.631 170.861 149.728 193.607Z" fill="#EA9B7A"/>
<path d="M152.36 178.538L182.369 288.252L171.667 275.919C175.631 278.016 180.218 279.651 185.303 280.788C190.37 281.926 195.916 282.583 201.694 282.885C207.49 283.187 213.517 283.134 219.686 282.885C225.855 282.636 232.166 282.174 238.566 281.624H238.602C248.042 280.824 256.345 287.808 257.145 297.244C257.909 306.235 251.527 314.214 242.744 315.636C236.148 316.684 229.428 317.679 222.548 318.479C215.668 319.279 208.61 319.865 201.285 320.043C193.979 320.203 186.405 319.936 178.583 318.799C170.778 317.662 162.671 315.636 154.742 312.206C149.675 310.02 146.066 305.862 144.431 301.011L144.057 299.874L108.039 191.972C103.985 179.853 110.545 166.739 122.67 162.687C134.795 158.635 147.915 165.193 151.969 177.312C152.129 177.703 152.253 178.165 152.36 178.538Z" fill="#EA9B7A"/>
<path d="M165.8 284.751C165.498 284.751 165.195 284.591 165.035 284.307C164.786 283.88 164.946 283.347 165.373 283.099C165.658 282.939 172.218 279.242 179.08 278.709C179.578 278.674 180.005 279.029 180.04 279.527C180.076 280.024 179.72 280.451 179.222 280.486C172.769 280.984 166.315 284.609 166.262 284.645C166.102 284.716 165.942 284.751 165.8 284.751Z" fill="#D96C63"/>
<path d="M176.716 280.788C176.556 280.788 176.396 280.753 176.253 280.664C172.111 278.158 167.098 277.767 167.044 277.767C166.547 277.732 166.191 277.305 166.227 276.825C166.262 276.328 166.671 275.973 167.169 276.008C167.382 276.026 172.662 276.417 177.16 279.153C177.587 279.402 177.711 279.953 177.462 280.38C177.302 280.628 177 280.788 176.716 280.788Z" fill="#D96C63"/>
<path d="M203.472 222.964C216.752 225.647 222.566 211.929 222.619 211.786C222.85 211.236 222.584 210.614 222.032 210.4C221.481 210.169 220.859 210.436 220.646 210.987C220.432 211.502 215.419 223.213 203.899 220.885C191.792 218.433 169.213 194.638 169 194.389C168.591 193.963 167.915 193.945 167.489 194.354C167.062 194.763 167.044 195.438 167.453 195.864C168.378 196.842 190.725 220.37 203.472 222.964Z" fill="#084FC7"/>
<path d="M182.6 136.547C182.6 136.547 161.284 132.531 155.275 111.029C149.551 90.5574 153.96 79.9308 159.915 68.8777C164.395 60.5434 178.618 49.2948 198.547 53.3287C218.672 57.3981 233.73 67.7404 235.953 84.2845C240.095 115.24 215.117 153.002 182.6 136.547Z" fill="#39393B"/>
<path d="M156.271 114.352C155.88 114.352 155.506 114.156 155.311 113.783C154.92 113.108 145.959 96.9903 153.408 75.7726C158.066 62.516 167.222 56.5985 174.102 53.9507C181.534 51.0897 187.774 51.374 188.04 51.374C188.645 51.4096 189.125 51.9249 189.089 52.5468C189.054 53.151 188.556 53.6309 187.934 53.5953C187.88 53.5953 181.818 53.3465 174.813 56.0476C165.498 59.655 159.009 66.5321 155.506 76.5012C148.413 96.7238 157.16 112.522 157.248 112.682C157.551 113.215 157.373 113.89 156.84 114.192C156.644 114.299 156.466 114.352 156.271 114.352Z" fill="#FAAF3A"/>
<path d="M223.935 114.69C223.935 114.69 230.868 109.216 232.699 116.467C234.53 123.717 229.375 136.6 221.303 132.691L223.935 114.69Z" fill="#D96C63"/>
<path d="M217.161 128.017C213.712 129.155 210.672 132.211 209.89 135.996C208.752 141.647 212.414 147.156 218.05 148.311C223.704 149.448 229.215 145.788 230.37 140.154C231.224 135.925 229.393 131.767 226.032 129.474C224.912 128.693 223.615 128.142 222.192 127.857C222.157 127.857 222.121 127.84 222.086 127.84C221.89 128.55 221.961 129.119 222.37 129.563C223.508 129.865 224.539 130.381 225.446 131.056C228.059 133.046 229.464 136.405 228.77 139.835C227.81 144.597 223.135 147.689 218.37 146.729C213.605 145.77 210.512 141.096 211.472 136.334C212.183 132.869 214.743 130.416 217.961 129.634L217.161 128.017Z" fill="#FAAF3A"/>
<path d="M202.921 145.77L200.023 163.931C200.023 163.931 186.423 177.81 161.586 152.914C168.253 147.956 170.795 136.44 170.013 129.012C170.013 129.012 171.969 130.185 174.991 132.922C175.578 133.455 176.342 133.864 177.071 134.379C183.631 138.822 193.694 144.633 202.921 145.77Z" fill="#EA9B7A"/>
<path d="M202.921 145.77L201.552 154.371C194.103 151.048 180.929 143.957 174.991 132.904C175.631 133.366 176.342 133.846 177.071 134.361C183.631 138.822 193.694 144.632 202.921 145.77Z" fill="#39393B"/>
<path d="M230.655 110.318C230.264 112.237 229.908 114.068 229.535 115.809C229.144 117.693 228.77 119.47 228.397 121.14C225.641 133.704 223.383 140.439 219.721 142.962C201.178 155.704 171.009 129.901 170.031 129.066C170.013 129.048 170.013 129.048 170.013 129.048C169.995 127.573 169.995 126.098 170.013 124.659C170.244 112.433 172.324 101.451 175.631 91.304C177.285 80.2154 185.889 71.3302 196.965 69.6598C208.45 67.9361 217.09 74.5822 222.495 77.5143C230.655 81.9569 233.855 94.3072 230.655 110.318Z" fill="#EA9B7A"/>
<path d="M176.271 79.8953C176.271 79.8953 189.249 54.9459 215.134 61.9118C241.02 68.8778 242.388 80.8905 242.851 86.8968C243.313 92.9032 229.446 82.2588 229.446 82.2588C229.446 82.2588 228.966 94.2715 224.344 90.5753C218.672 86.0261 212.343 76.2347 212.343 76.2347C212.343 76.2347 196.93 91.3749 182.28 87.2878C173.942 84.9776 176.271 79.8953 176.271 79.8953Z" fill="#39393B"/>
<path d="M208.059 134.788C204.699 134.788 202.387 132.46 202.281 132.336C201.925 131.963 201.925 131.376 202.299 131.021C202.672 130.665 203.241 130.665 203.596 131.038C203.721 131.163 206.388 133.811 209.908 132.602C210.388 132.442 210.921 132.691 211.081 133.171C211.241 133.651 210.992 134.184 210.512 134.344C209.659 134.664 208.841 134.788 208.059 134.788Z" fill="#D96C63"/>
<path d="M200.325 119.683C200.325 119.683 212.805 123.379 219.277 123.379C219.277 123.379 216.041 132.62 206.796 129.386C199.596 126.862 200.325 119.683 200.325 119.683Z" fill="white"/>
<path d="M223.49 93.7031C223.49 93.7031 220.255 93.3654 220.77 96.5108C221.303 99.6561 228.326 97.7369 231.81 104.028C231.81 104.028 235.171 97.4348 223.49 93.7031Z" fill="#39393B"/>
<path d="M209.072 90.7885C209.072 90.7885 212.183 91.7481 210.477 94.4314C208.77 97.1147 203.045 92.6188 197.392 97.0614C197.392 97.0614 196.876 89.6867 209.072 90.7885Z" fill="#39393B"/>
<path d="M203.454 113.304C203.152 114.779 199.863 115.365 196.076 114.601C192.307 113.837 189.498 112.024 189.8 110.531C190.103 109.057 193.392 108.47 197.178 109.234C200.947 109.998 203.756 111.829 203.454 113.304Z" fill="#D96C63"/>
<path d="M240.291 114.281L230.21 112.557C230.157 112.984 230.05 113.41 229.961 113.819C229.944 113.89 229.926 113.961 229.89 114.032L240.042 115.756C240.451 115.827 240.842 115.543 240.913 115.134C240.984 114.743 240.717 114.352 240.291 114.281Z" fill="white"/>
<path d="M213.374 105.68C213.374 105.165 213.357 104.649 213.285 104.152C212.948 101.415 211.739 98.8918 209.89 96.9371C208.183 95.1423 205.961 93.8273 203.383 93.2586C203.347 93.2408 203.294 93.2408 203.259 93.2231C197.356 92.0147 191.543 95.1067 189.143 100.367C188.929 100.829 188.752 101.291 188.592 101.771C188.449 102.197 188.343 102.641 188.236 103.086C187.56 106.391 188.218 109.661 189.872 112.326C190.44 113.232 191.116 114.068 191.88 114.796C193.552 116.413 195.667 117.586 198.103 118.084C202.21 118.937 206.245 117.693 209.143 115.098C211.099 113.357 212.539 110.976 213.108 108.221C213.108 108.203 213.108 108.203 213.108 108.186C213.285 107.35 213.374 106.515 213.374 105.68ZM198.423 116.609C198.352 116.591 198.298 116.591 198.245 116.573C195.063 115.862 192.485 113.837 190.974 111.189C189.676 108.896 189.16 106.16 189.729 103.388C189.854 102.819 190.014 102.268 190.209 101.735C190.227 101.7 190.245 101.664 190.245 101.628C191.827 97.5235 195.685 94.7335 200.023 94.4848C200.983 94.4315 201.961 94.4848 202.956 94.698C205.09 95.1423 206.939 96.1552 208.414 97.559C211.117 100.136 212.468 104.01 211.668 107.919C210.388 113.961 204.467 117.87 198.423 116.609Z" fill="white"/>
<path d="M235.971 100.491C235.633 100.313 235.277 100.154 234.904 99.9936C234.477 99.8159 234.033 99.6737 233.588 99.5316C233.268 99.4427 232.966 99.3538 232.628 99.3005C232.024 99.1761 231.437 99.1051 230.85 99.0695C230.139 99.0162 229.428 99.034 228.735 99.1228C226.797 99.3361 224.966 99.9758 223.348 100.989C221.57 102.09 220.059 103.636 219.028 105.502C218.743 105.982 218.512 106.48 218.299 106.977C218.281 107.013 218.281 107.031 218.263 107.066C217.997 107.741 217.783 108.452 217.623 109.181C216.61 114.085 218.583 118.919 222.299 121.798C223.508 122.74 224.895 123.468 226.424 123.912C226.655 123.983 226.886 124.055 227.135 124.09C227.259 124.126 227.366 124.143 227.49 124.179C228.717 124.428 229.944 124.499 231.135 124.392C231.33 124.374 231.526 124.357 231.704 124.339C232.219 124.268 232.735 124.179 233.25 124.037C234.193 123.788 235.117 123.433 235.971 122.988C239.224 121.282 241.713 118.19 242.513 114.316C243.669 108.63 240.842 103.05 235.971 100.491ZM241.02 113.997C240.966 114.245 240.913 114.476 240.842 114.707C240.753 115.045 240.646 115.365 240.522 115.703C239.633 118.066 237.997 119.985 235.935 121.247C235.188 121.709 234.37 122.082 233.517 122.366C232.984 122.544 232.45 122.668 231.882 122.757C231.722 122.793 231.562 122.811 231.402 122.828C230.228 122.971 229.001 122.935 227.775 122.686C227.668 122.668 227.544 122.633 227.437 122.615C227.366 122.597 227.295 122.58 227.241 122.562C225.446 122.1 223.846 121.211 222.548 120.021C222.352 119.843 222.175 119.665 221.997 119.488C219.526 116.929 218.317 113.215 219.081 109.465C219.259 108.63 219.526 107.813 219.863 107.066C220.983 104.614 222.939 102.712 225.304 101.593C226.761 100.9 228.379 100.527 230.05 100.527C230.317 100.527 230.584 100.544 230.868 100.562C231.348 100.598 231.828 100.669 232.308 100.758C232.664 100.829 233.002 100.918 233.339 101.024C233.802 101.166 234.246 101.344 234.691 101.54C235.028 101.7 235.366 101.877 235.704 102.055C239.74 104.418 242.015 109.163 241.02 113.997Z" fill="white"/>
<path d="M173.071 102.659C172.982 102.641 172.893 102.606 172.822 102.552C172.467 102.321 172.378 101.859 172.591 101.522C177.64 93.6316 189.783 100.722 189.889 100.793C190.245 101.006 190.369 101.468 190.156 101.824C189.943 102.179 189.48 102.303 189.125 102.09C189.018 102.019 178.12 95.6751 173.853 102.339C173.693 102.588 173.373 102.712 173.071 102.659Z" fill="white"/>
<path d="M218.832 107.404C218.637 107.368 218.477 107.244 218.352 107.084C216.734 104.596 213.285 105.716 213.25 105.716C212.859 105.84 212.432 105.627 212.308 105.236C212.183 104.845 212.397 104.419 212.788 104.294C214.37 103.761 217.837 103.494 219.632 106.267C219.863 106.622 219.757 107.084 219.401 107.297C219.223 107.404 219.028 107.439 218.832 107.404Z" fill="white"/>
<g opacity="0.8">
<g opacity="0.8">
<g opacity="0.8">
<g opacity="0.8">
<g opacity="0.8">
<g opacity="0.8">
<g opacity="0.8">
<path opacity="0.8" d="M229.535 115.809C229.144 117.693 228.77 119.47 228.397 121.14C224.966 120.305 222.495 118.617 222.779 117.213C223.081 115.827 226.032 115.223 229.535 115.809Z" fill="#D96C63"/>
</g>
</g>
</g>
</g>
</g>
</g>
</g>
<path d="M206.103 105.858C205.694 107.901 204.432 109.359 203.294 109.128C202.156 108.897 201.57 107.066 201.978 105.023C202.387 102.979 203.65 101.522 204.787 101.753C205.925 101.984 206.512 103.814 206.103 105.858Z" fill="#39393B"/>
<path d="M226.264 109.945C225.855 111.989 224.592 113.446 223.455 113.215C222.317 112.984 221.73 111.154 222.139 109.11C222.548 107.066 223.81 105.609 224.948 105.84C226.086 106.071 226.672 107.902 226.264 109.945Z" fill="#39393B"/>
<path d="M215.846 115.418C216.823 115.613 217.517 115.578 217.57 115.578C217.801 115.56 218.032 115.454 218.192 115.276C218.352 115.098 218.406 114.849 218.388 114.618L217.09 105.111C217.019 104.649 216.592 104.312 216.13 104.383C215.668 104.454 215.33 104.88 215.401 105.342L216.557 113.819C215.703 113.694 214.423 113.339 213.268 112.379C212.912 112.077 212.361 112.131 212.059 112.486C211.757 112.841 211.81 113.392 212.165 113.694C213.428 114.725 214.797 115.205 215.846 115.418Z" fill="#39393B"/>
<path d="M178.351 122.135C178.209 122.349 174.262 128.017 170.049 129.048C170.031 129.03 170.031 129.03 170.031 129.03C169.995 127.555 170.013 126.081 170.031 124.641C170.173 124.659 174.191 124.766 178.351 122.135Z" fill="#39393B"/>
<path d="M177.48 107.244C177.48 107.244 171.542 94.6624 163.844 102.037C157.497 108.132 163.044 128.461 174.067 124.108L177.48 107.244Z" fill="#EA9B7A"/>
<path d="M162.884 118.102C159.435 119.239 156.395 122.295 155.613 126.08C154.475 131.731 158.137 137.24 163.773 138.395C169.427 139.532 174.938 135.872 176.093 130.239C176.947 126.009 175.116 121.851 171.756 119.559C170.635 118.777 169.338 118.226 167.915 117.942C167.88 117.942 167.844 117.924 167.809 117.924C167.613 118.635 167.702 119.203 168.093 119.648C169.231 119.95 170.262 120.465 171.169 121.14C173.782 123.131 175.187 126.489 174.493 129.919C173.533 134.681 168.858 137.773 164.093 136.814C159.329 135.854 156.235 131.18 157.195 126.418C157.889 122.953 160.466 120.501 163.684 119.719L162.884 118.102Z" fill="#FAAF3A"/>
<path d="M173.604 120.607C173.64 120.607 173.658 120.625 173.693 120.625C174.156 120.661 174.582 120.323 174.618 119.843C175.489 110.336 168.307 105.52 168.004 105.325C167.613 105.058 167.08 105.183 166.813 105.574C166.546 105.965 166.671 106.498 167.062 106.764C167.329 106.942 173.693 111.242 172.911 119.701C172.893 120.127 173.196 120.518 173.604 120.607Z" fill="#39393B"/>
<path d="M166.813 113.943C166.991 113.979 167.204 113.961 167.382 113.854C168.235 113.41 170.742 112.415 172.111 113.073C172.538 113.286 173.053 113.108 173.249 112.682C173.462 112.255 173.284 111.74 172.858 111.544C170.476 110.389 166.991 112.149 166.6 112.344C166.173 112.557 166.013 113.073 166.244 113.499C166.351 113.73 166.582 113.89 166.813 113.943Z" fill="#39393B"/>
<path d="M185.125 85.9019C185.125 85.9019 177.142 107.564 176.716 111.935C176.129 117.888 168.253 97.4881 176.165 80.0732L185.125 85.9019Z" fill="#39393B"/>
<path d="M318.497 545.157H285.625C285.625 545.157 278.016 508.692 275.474 488.257C272.914 467.803 271.598 419.343 271.598 419.343C271.598 419.343 245.411 427.855 190.583 424.639C69.104 417.549 115.167 328.342 115.167 328.342C119.274 334.011 150.066 341.812 167.24 344.531C219.988 349.595 260.078 358.551 287.527 370.386C294.141 373.23 300.008 376.25 305.163 379.431C311.777 383.501 315.919 395.887 318.426 412.146C325.911 461.033 318.497 545.157 318.497 545.157Z" fill="#39393B"/>
<path d="M289.696 527.6C289.145 527.6 288.665 527.209 288.541 526.658C283.794 503.202 282.212 474.005 280.932 450.548C279.865 431.09 278.869 412.715 276.363 410.512C274.336 408.717 265.927 410.121 255.295 411.88C234.122 415.399 202.121 420.694 166.849 412.502C147.63 408.024 133.497 398.695 124.857 384.763C109.941 360.737 116.75 330.936 116.821 330.634C116.963 329.995 117.603 329.604 118.243 329.764C118.883 329.906 119.274 330.545 119.114 331.185C119.043 331.47 112.483 360.346 126.883 383.536C135.186 396.917 148.822 405.891 167.4 410.21C202.227 418.313 233.944 413.053 254.94 409.57C267.509 407.491 275.1 406.229 277.963 408.752C281.056 411.489 281.927 424.923 283.314 450.424C284.594 473.81 286.176 502.899 290.888 526.196C291.012 526.836 290.603 527.458 289.963 527.582C289.856 527.582 289.785 527.6 289.696 527.6Z" fill="#585859"/>
<path d="M319.119 528.204H319.102L282.55 527.422C281.892 527.404 281.376 526.871 281.394 526.214C281.412 525.556 281.945 525.041 282.603 525.059L319.155 525.841C319.813 525.858 320.328 526.392 320.311 527.049C320.275 527.707 319.759 528.204 319.119 528.204Z" fill="#585859"/>
<path d="M317.59 587.255H294.39L289.927 560.049L287.474 545.157H316.293L316.755 560.049L317.59 587.255Z" fill="#EA9B7A"/>
<path d="M317.59 587.255H294.39L291.065 566.997L289.927 560.049H316.755L316.968 567.246L317.59 587.255Z" fill="#FAAF3A"/>
<path d="M316.968 567.246L291.065 566.997L289.927 560.049H316.755L316.968 567.246Z" fill="#C77E2E"/>
<path d="M374.836 623.88H287.083C286.425 622.689 286.07 621.019 285.927 619.011C285.376 611.583 287.741 599.748 288.896 592.284C289.039 591.413 289.163 590.596 289.252 589.867C289.412 588.623 289.519 587.575 289.519 586.811C289.519 580.716 294.905 581.764 294.905 581.764C303.777 590.471 313.839 577.428 319.706 581.693C319.706 581.693 319.937 581.871 320.488 582.279C320.986 582.67 321.733 583.274 322.764 584.145C324.257 585.389 326.355 587.202 329.2 589.761C336.169 596.034 348.009 600.156 358.089 604.368C359.369 604.901 360.56 605.434 361.68 605.985C362.516 606.394 363.316 606.802 364.063 607.193C372.312 611.636 374.925 615.901 375.53 618.993C376.116 621.96 374.836 623.88 374.836 623.88Z" fill="#0875F7"/>
<path d="M364.081 607.211C361.823 609.006 356.791 612.613 352.756 612.613C352.578 612.613 352.4 612.613 352.222 612.595C349.378 612.364 338.924 607.229 330.409 602.555C325.537 599.872 321.075 597.242 317.875 595.127C312.63 591.662 311.706 590.347 311.51 589.423C310.746 585.958 316.47 583.559 320.488 582.297C320.986 582.688 321.733 583.292 322.764 584.163C317.786 585.514 313.679 587.646 313.875 588.854C314.373 589.885 319.564 593.83 331.973 600.636C341.449 605.825 350.427 610.001 352.418 610.179C355.12 610.392 359.085 607.94 361.68 606.003C362.552 606.394 363.334 606.802 364.081 607.211Z" fill="#084FC7"/>
<path d="M374.836 623.88H287.083C286.425 622.689 286.07 621.019 285.927 619.011H375.548C376.116 621.961 374.836 623.88 374.836 623.88Z" fill="#084FC7"/>
<path d="M296.043 623.879H293.43C296.025 620.912 298.461 616.345 298.141 609.841C297.714 601.169 292.523 595.34 288.896 592.284C289.039 591.413 289.163 590.596 289.252 589.867C293.145 592.835 299.706 599.357 300.221 609.734C300.541 615.954 298.497 620.592 296.043 623.879Z" fill="#084FC7"/>
<path d="M327.742 594.95C327.102 594.95 326.497 594.505 326.337 593.848C326.142 593.066 326.622 592.284 327.386 592.089L332.862 590.72C333.644 590.525 334.426 591.005 334.622 591.769C334.818 592.551 334.338 593.332 333.573 593.528L328.097 594.896C327.973 594.932 327.848 594.95 327.742 594.95Z" fill="white"/>
<path d="M322.284 590.382C321.626 590.382 321.039 589.938 320.879 589.281C320.684 588.499 321.164 587.717 321.928 587.521L327.404 586.153C328.186 585.958 328.969 586.437 329.164 587.202C329.36 587.983 328.88 588.765 328.115 588.961L322.639 590.329C322.515 590.365 322.408 590.382 322.284 590.382Z" fill="white"/>
<path d="M333.218 598.13C332.578 598.13 331.973 597.686 331.813 597.029C331.617 596.247 332.098 595.465 332.862 595.287L338.338 593.919C339.12 593.723 339.902 594.203 340.098 594.967C340.293 595.749 339.813 596.531 339.049 596.727L333.573 598.095C333.449 598.113 333.324 598.13 333.218 598.13Z" fill="white"/>
<path d="M338.693 601.187C338.053 601.187 337.449 600.743 337.289 600.085C337.093 599.303 337.573 598.521 338.338 598.344L343.813 596.975C344.596 596.78 345.378 597.26 345.573 598.024C345.769 598.806 345.289 599.588 344.524 599.783L339.049 601.151C338.924 601.169 338.818 601.187 338.693 601.187Z" fill="white"/>
<path d="M344.667 604.012C344.027 604.012 343.422 603.568 343.262 602.911C343.067 602.129 343.547 601.347 344.311 601.169L349.787 599.801C350.569 599.605 351.351 600.085 351.547 600.849C351.742 601.631 351.262 602.413 350.498 602.608L345.022 603.977C344.898 604.012 344.791 604.012 344.667 604.012Z" fill="white"/>
<path d="M351.156 606.429C350.498 606.429 349.911 605.985 349.751 605.327C349.556 604.545 350.036 603.763 350.8 603.568L356.276 602.2C357.058 602.004 357.84 602.484 358.036 603.248C358.232 604.03 357.751 604.812 356.987 605.007L351.511 606.376C351.387 606.411 351.262 606.429 351.156 606.429Z" fill="white"/>
<path d="M439.567 327.027V334.313C439.567 338.506 437.042 341.9 433.913 341.9H40.1788C37.0499 341.9 34.5254 338.506 34.5254 334.313V327.027C34.5254 322.833 37.0499 319.439 40.1788 319.439H433.896C437.025 319.439 439.567 322.833 439.567 327.027Z" fill="#21B573"/>
<path d="M439.567 329.337H34.5254V332.678H439.567V329.337Z" fill="#217C58"/>
<path d="M427.727 360.613H57.6371C55.9837 360.613 54.6325 359.262 54.6325 357.609V341.794H430.731V357.609C430.731 359.262 429.38 360.613 427.727 360.613Z" fill="#217C58"/>
<path d="M411.104 453.445H80.1265V466.346H411.104V453.445Z" fill="#217C58"/>
<path d="M56.2681 626.172L120.341 360.613H97.8336L33.7609 626.172H56.2681Z" fill="#21B573"/>
<path d="M434.536 626.172L370.445 360.613H392.952L457.025 626.172H434.536Z" fill="#21B573"/>
<path d="M70.4586 258.408L63.5168 259.47L71.5474 311.833L78.4892 310.771L70.4586 258.408Z" fill="#FAAF3A"/>
<path d="M70.4726 258.38L63.5391 259.446L65.068 254.151L65.8502 251.396L67.4325 253.777L70.4726 258.38Z" fill="#EA9B7A"/>
<path d="M77.8927 306.961L70.9509 308.022L71.5354 311.834L78.4772 310.772L77.8927 306.961Z" fill="#39393B"/>
<path d="M78.5087 313.841L72.4819 314.765C72.233 314.801 71.9841 314.623 71.9485 314.374L71.5574 311.798L78.5087 310.731L78.8998 313.308C78.9354 313.575 78.7576 313.806 78.5087 313.841Z" fill="#DF615C"/>
<path d="M67.4329 253.777L65.0684 254.151L65.8506 251.396L67.4329 253.777Z" fill="#39393B"/>
<path d="M77.4997 304.225L70.558 305.286L70.9755 308.009L77.9173 306.947L77.4997 304.225Z" fill="#C77E2E"/>
<path d="M65.6551 261.756L71.593 300.531C71.6463 300.833 71.913 301.029 72.1975 300.975C72.4819 300.922 72.6952 300.655 72.6419 300.371L66.704 261.596C66.6506 261.312 66.384 261.099 66.0995 261.152C65.8151 261.188 65.6017 261.472 65.6551 261.756Z" fill="#C77E2E"/>
<path d="M68.3751 261.347L74.3131 300.122C74.3664 300.407 74.6331 300.62 74.9175 300.566C75.2197 300.513 75.4153 300.247 75.362 299.962L69.424 261.188C69.3707 260.903 69.104 260.69 68.8196 260.743C68.5351 260.779 68.3218 261.045 68.3751 261.347Z" fill="#C77E2E"/>
<path d="M83.0447 258.619L76.0223 258.642L76.1964 311.616L83.2189 311.592L83.0447 258.619Z" fill="#21B573"/>
<path d="M83.0422 258.629L76.0198 258.647L78.3132 253.635L79.5043 251.023L80.7132 253.618L83.0422 258.629Z" fill="#EA9B7A"/>
<path d="M83.1968 307.755L76.1744 307.778L76.1871 311.634L83.2095 311.611L83.1968 307.755Z" fill="#39393B"/>
<path d="M82.7579 314.659L76.6599 314.676C76.3933 314.676 76.1977 314.463 76.1977 314.214V311.62L83.2201 311.602V314.196C83.2201 314.445 83.0245 314.659 82.7579 314.659Z" fill="#DF615C"/>
<path d="M80.7132 253.618L78.3132 253.635L79.5043 251.023L80.7132 253.618Z" fill="#39393B"/>
<path d="M83.1808 304.982L76.1584 305.005L76.1675 307.76L83.1899 307.737L83.1808 304.982Z" fill="#217C58"/>
<path d="M77.762 261.259L77.8864 300.478C77.8864 300.78 78.1353 301.011 78.4198 301.011C78.722 301.011 78.9531 300.762 78.9531 300.478L78.8287 261.259C78.8287 260.957 78.5798 260.726 78.2953 260.726C78.0109 260.708 77.762 260.957 77.762 261.259Z" fill="#217C58"/>
<path d="M80.5176 261.241L80.6421 300.46C80.6421 300.762 80.891 300.993 81.1754 300.993C81.4777 300.993 81.7088 300.744 81.7088 300.46L81.5843 261.241C81.5843 260.939 81.3354 260.708 81.051 260.708C80.7665 260.708 80.5176 260.939 80.5176 261.241Z" fill="#217C58"/>
<path d="M88.2312 258.358L80.7735 310.806L87.7265 311.792L95.1842 259.344L88.2312 258.358Z" fill="#0875F7"/>
<path d="M95.1669 259.375L88.2156 258.38L91.2024 253.742L92.7669 251.343L93.5847 254.08L95.1669 259.375Z" fill="#EA9B7A"/>
<path d="M88.2852 308.024L81.3325 307.036L80.7908 310.854L87.7435 311.842L88.2852 308.024Z" fill="#39393B"/>
<path d="M86.8289 314.783L80.8021 313.93C80.5532 313.895 80.3754 313.664 80.411 313.397L80.7843 310.82L87.7356 311.815L87.3623 314.392C87.3089 314.641 87.0778 314.819 86.8289 314.783Z" fill="#DF615C"/>
<path d="M93.5847 254.08L91.2024 253.742L92.7669 251.343L93.5847 254.08Z" fill="#39393B"/>
<path d="M81.7097 304.278L81.3216 307.005L88.2746 307.992L88.6627 305.265L81.7097 304.278Z" fill="#084FC7"/>
<path d="M89.5668 261.206L84.0555 300.034C84.02 300.336 84.2155 300.603 84.5178 300.638C84.82 300.674 85.0867 300.478 85.1222 300.176L90.6335 261.348C90.669 261.046 90.4735 260.779 90.1712 260.744C89.8868 260.708 89.6201 260.922 89.5668 261.206Z" fill="#084FC7"/>
<path d="M92.3046 261.597L86.7934 300.425C86.7578 300.727 86.9534 300.994 87.2556 301.029C87.5578 301.065 87.8245 300.869 87.8601 300.567L93.3713 261.739C93.4069 261.437 93.2113 261.17 92.9091 261.135C92.6069 261.099 92.3402 261.295 92.3046 261.597Z" fill="#084FC7"/>
<path d="M97.4603 279.58L97.087 282.423L96.7492 285L96.2514 288.909L95.9136 291.468L95.4158 295.413L95.078 297.937L94.5625 301.917L94.2425 304.405L93.7269 308.421L93.4069 310.873L92.8913 314.925L92.5713 317.342L92.3046 319.439H64.6772L64.4106 317.342L64.0906 314.925L63.575 310.873L63.255 308.421L62.7394 304.405L62.4194 301.917L61.9038 297.937L61.5838 295.413L61.0683 291.468L60.7483 288.909L60.2327 285L59.8949 282.423L59.5393 279.58H97.4603Z" fill="#DF615C"/>
<path d="M97.0869 282.423L96.7491 285H60.2326L59.8949 282.423H97.0869Z" fill="#B11722"/>
<path d="M96.2514 288.909L95.9136 291.468H61.0682L60.7482 288.909H96.2514Z" fill="#B11722"/>
<path d="M95.4158 295.413L95.078 297.937H61.9038L61.5838 295.413H95.4158Z" fill="#B11722"/>
<path d="M94.5624 301.917L94.2424 304.405H62.7394L62.4194 301.917H94.5624Z" fill="#B11722"/>
<path d="M93.7269 308.421L93.4069 310.873H63.575L63.255 308.421H93.7269Z" fill="#B11722"/>
<path d="M92.8913 314.925L92.5713 317.342H64.4106L64.0905 314.925H92.8913Z" fill="#B11722"/>
<path d="M437.274 178.609L413.717 278.194L413.095 280.806L411.513 287.506C410.82 290.42 408.242 292.464 405.255 292.464H246.549C242.389 292.464 239.331 288.59 240.291 284.556L266.051 175.642C266.745 172.745 269.323 170.702 272.309 170.702H430.998C435.158 170.702 438.216 174.576 437.274 178.609Z" fill="#39393B"/>
<path d="M413.7 278.176L413.095 280.806H248.309V278.176H413.7Z" fill="#585859"/>
<path d="M310.497 195.331C309.181 202.386 302.39 208.108 295.332 208.108C288.274 208.108 283.616 202.386 284.932 195.331C286.247 188.276 293.039 182.554 300.097 182.554C307.172 182.554 311.813 188.276 310.497 195.331Z" fill="#FAAF3A"/>
<path d="M296.061 192.897C295.794 194.3 295.083 195.455 294.479 195.455C293.857 195.455 293.572 194.318 293.839 192.897C294.105 191.493 294.817 190.338 295.421 190.338C296.043 190.338 296.328 191.475 296.061 192.897Z" fill="#39393B"/>
<path d="M302.728 192.897C302.461 194.3 301.75 195.455 301.146 195.455C300.541 195.455 300.239 194.318 300.506 192.897C300.772 191.493 301.483 190.338 302.088 190.338C302.71 190.338 302.995 191.475 302.728 192.897Z" fill="#39393B"/>
<path d="M296.665 201.568C291.172 201.568 290.941 196.077 290.941 196.024C290.923 195.722 291.172 195.42 291.492 195.367C291.812 195.296 292.061 195.491 292.079 195.793C292.079 195.989 292.292 200.467 296.897 200.467C301.483 200.467 303.368 195.989 303.457 195.793C303.581 195.491 303.919 195.313 304.203 195.367C304.488 195.438 304.63 195.722 304.506 196.024C304.452 196.06 302.159 201.568 296.665 201.568Z" fill="#39393B"/>
<path d="M383.868 255.004C384.01 261.614 395.21 269.895 395.21 269.895C395.21 269.895 408.224 261.614 409.806 255.004C411.513 247.842 403.335 245.639 397.273 251.041C392.383 245.639 383.708 247.842 383.868 255.004Z" fill="#DF615C"/>
<path d="M360.152 235.83C359.387 242.689 353.218 248.233 346.373 248.233C339.529 248.233 334.569 242.671 335.333 235.83C336.098 228.97 342.267 223.426 349.111 223.426C355.974 223.426 360.916 228.988 360.152 235.83Z" fill="#585859"/>
<path d="M278.603 170.702L251.171 292.464H246.549C242.389 292.464 239.331 288.59 240.291 284.556L266.051 175.642C266.745 172.745 269.323 170.684 272.309 170.684H278.603V170.702Z" fill="#585859"/>
<path d="M324.56 292.464L319.742 319.528H335.653L340.471 292.464H324.56Z" fill="white"/>
<path d="M295.954 314.872L299.208 310.305C300.363 308.67 302.248 307.711 304.257 307.711H347.849C350.16 307.711 352.276 308.99 353.343 311.034L355.529 315.227C356.56 317.182 355.138 319.546 352.916 319.546H298.354C295.954 319.528 294.568 316.809 295.954 314.872Z" fill="white"/>
<path d="M205.125 319.51H336.08L337.502 314.57C338.391 311.46 336.062 308.368 332.826 308.368H211.988C209.819 308.368 207.916 309.807 207.312 311.886L205.125 319.51Z" fill="white"/>
<path d="M376.828 138.182L318.906 138.146C316.666 138.146 314.835 136.316 314.835 134.077L314.853 98.5009C314.853 96.2618 316.684 94.4315 318.924 94.4315L376.845 94.4671C379.085 94.4671 380.917 96.2974 380.917 98.5365L380.899 134.113C380.899 136.369 379.085 138.182 376.828 138.182Z" fill="#DF615C"/>
<path d="M373.379 131.625L368.098 151.563L358.872 132.815L373.379 131.625Z" fill="#DF615C"/>
<path d="M362.516 113.09C361.343 120.554 347.387 129.901 347.387 129.901C347.387 129.901 333.964 120.536 333.2 113.055C332.364 104.951 341.964 102.481 347.991 108.594C354.338 102.499 363.796 104.987 362.516 113.09Z" fill="white"/>
<path d="M418.234 604.687C472.755 604.687 516.953 600.321 516.953 594.936C516.953 589.551 472.755 585.185 418.234 585.185C363.713 585.185 319.515 589.551 319.515 594.936C319.515 600.321 363.713 604.687 418.234 604.687Z" fill="#CED3E6"/>
<path d="M478.679 524.42H354.052C351.686 524.42 349.764 522.498 349.764 520.132V518.156C349.764 515.79 351.686 513.868 354.052 513.868H478.679C481.045 513.868 482.967 515.79 482.967 518.156V520.132C482.967 522.498 481.045 524.42 478.679 524.42Z" fill="#39393B"/>
<path d="M355.618 396.982H477.38C479.408 396.982 481.045 398.619 481.045 400.647V415.612C481.045 417.64 479.408 419.277 477.38 419.277H355.618C353.59 419.277 351.952 417.64 351.952 415.612V400.647C351.952 398.619 353.59 396.982 355.618 396.982Z" fill="#585859"/>
<path d="M384.373 302.142C384.373 302.142 333.038 292 318.714 256.181C304.39 220.362 356.775 193.494 384.373 212.729C413.91 233.298 384.373 302.142 384.373 302.142Z" fill="#21B573"/>
<path d="M414.906 396.253C414.462 396.253 414.052 395.915 413.981 395.452C409.07 362.178 389.23 314.313 373.483 280.024C356.383 242.836 340.262 213.156 340.102 212.853C339.853 212.409 340.031 211.839 340.476 211.59C340.921 211.341 341.49 211.519 341.739 211.964C341.899 212.266 358.056 241.999 375.191 279.242C391.01 313.654 410.903 361.697 415.85 395.185C415.921 395.701 415.583 396.164 415.067 396.235C414.995 396.235 414.942 396.253 414.906 396.253Z" fill="#39393B"/>
<path d="M382.451 298.672C382.113 298.672 381.793 298.494 381.632 298.192C359.301 256.608 323.038 226.43 322.682 226.128C322.291 225.807 322.237 225.22 322.557 224.829C322.878 224.437 323.465 224.384 323.856 224.704C324.23 225.007 360.76 255.398 383.269 297.32C383.518 297.765 383.341 298.334 382.896 298.583C382.736 298.637 382.593 298.672 382.451 298.672Z" fill="#39393B"/>
<path d="M383.465 301.661C383.198 301.661 382.949 301.555 382.753 301.341C366.472 282.177 349.782 270.256 338.661 263.636C326.597 256.466 318.287 253.779 318.216 253.761C317.735 253.601 317.451 253.085 317.611 252.587C317.771 252.106 318.287 251.821 318.785 251.982C319.123 252.088 327.344 254.722 339.568 261.999C350.831 268.69 367.718 280.754 384.177 300.131C384.515 300.523 384.462 301.11 384.07 301.448C383.892 301.59 383.661 301.661 383.465 301.661Z" fill="#39393B"/>
<path d="M378.945 290.754C378.554 290.754 378.198 290.505 378.074 290.131C365.547 253.388 370.155 208.743 370.209 208.298C370.262 207.782 370.725 207.427 371.223 207.48C371.739 207.533 372.095 207.996 372.042 208.494C371.988 208.939 367.433 253.192 379.817 289.526C379.977 290.007 379.728 290.541 379.23 290.701C379.141 290.736 379.034 290.754 378.945 290.754Z" fill="#39393B"/>
<path d="M382.095 298.032C381.65 298.032 381.259 297.711 381.187 297.249C377.362 273.992 380.298 255.024 383.447 243.209C386.864 230.38 391.134 223.156 391.312 222.853C391.579 222.409 392.148 222.266 392.593 222.533C393.038 222.8 393.18 223.369 392.913 223.814C392.878 223.886 388.572 231.163 385.227 243.779C382.148 255.398 379.266 274.081 383.02 296.964C383.109 297.462 382.753 297.943 382.255 298.032C382.184 298.014 382.13 298.032 382.095 298.032Z" fill="#39393B"/>
<path d="M438.519 311.501C438.519 311.501 490.369 304.401 506.793 269.508C523.216 234.597 472.505 204.686 443.821 222.248C413.109 241.038 438.519 311.501 438.519 311.501Z" fill="#21B573"/>
<path d="M418.857 393.209C418.341 393.209 417.914 392.782 417.931 392.266C418.127 375.131 421.864 355.612 429.035 334.259C434.764 317.195 442.665 298.921 452.558 279.953C469.373 247.658 486.312 224.188 486.49 223.956C486.793 223.547 487.38 223.44 487.789 223.743C488.199 224.045 488.305 224.633 488.003 225.042C487.843 225.273 470.974 248.654 454.213 280.825C438.768 310.487 420.262 353.886 419.818 392.284C419.782 392.8 419.373 393.209 418.857 393.209Z" fill="#39393B"/>
<path d="M440.707 308.156C440.547 308.156 440.369 308.121 440.227 308.014C439.782 307.747 439.657 307.177 439.924 306.733C464.871 266.216 503.145 238.031 503.537 237.747C503.946 237.444 504.533 237.533 504.836 237.942C505.138 238.352 505.049 238.939 504.64 239.241C504.266 239.526 466.277 267.498 441.526 307.693C441.33 307.996 441.027 308.156 440.707 308.156Z" fill="#39393B"/>
<path d="M439.515 311.074C439.284 311.074 439.053 310.985 438.875 310.825C438.501 310.469 438.483 309.882 438.839 309.508C456.437 291.127 473.999 280.095 485.636 274.081C498.27 267.551 506.615 265.398 506.971 265.309C507.469 265.184 507.967 265.487 508.092 265.985C508.216 266.483 507.914 266.981 507.416 267.106C507.327 267.124 498.875 269.312 486.419 275.754C474.924 281.697 457.576 292.622 440.173 310.789C440.013 310.967 439.764 311.074 439.515 311.074Z" fill="#39393B"/>
<path d="M444.675 300.451C444.551 300.451 444.444 300.434 444.319 300.38C443.839 300.185 443.625 299.651 443.803 299.17C458.323 263.619 456.383 219.188 456.366 218.743C456.348 218.227 456.739 217.8 457.255 217.764C457.754 217.729 458.198 218.138 458.234 218.654C458.252 219.099 460.209 263.939 445.547 299.882C445.387 300.238 445.049 300.451 444.675 300.451Z" fill="#39393B"/>
<path d="M441.099 307.533C441.028 307.533 440.956 307.533 440.885 307.515C440.387 307.408 440.067 306.91 440.191 306.412C445.316 283.779 443.536 264.971 441.152 253.191C438.554 240.415 434.711 232.889 434.675 232.8C434.444 232.337 434.622 231.785 435.067 231.554C435.529 231.323 436.081 231.501 436.312 231.946C436.472 232.248 440.298 239.721 442.949 252.746C445.387 264.739 447.202 283.85 442.006 306.821C441.917 307.231 441.526 307.533 441.099 307.533Z" fill="#39393B"/>
<path d="M418.554 243.956C418.554 243.956 374.622 215.522 374.568 176.946C374.515 138.369 433.127 132.817 451.65 160.896C471.49 190.949 418.554 243.956 418.554 243.956Z" fill="#21B573"/>
<path d="M412.415 342.729C412.344 342.729 412.273 342.729 412.202 342.711C411.704 342.587 411.401 342.089 411.508 341.59C419.266 308.868 418.572 257.053 416.632 219.366C414.533 178.494 410.529 144.935 410.494 144.615C410.44 144.099 410.796 143.636 411.312 143.583C411.81 143.529 412.291 143.885 412.344 144.401C412.38 144.739 416.383 178.351 418.501 219.277C420.458 257.088 421.134 309.081 413.341 342.017C413.216 342.444 412.842 342.729 412.415 342.729Z" fill="#39393B"/>
<path d="M418.394 240.095C417.931 240.095 417.522 239.739 417.469 239.277C412.131 192.372 389.622 150.913 389.39 150.504C389.141 150.059 389.301 149.49 389.764 149.241C390.209 148.992 390.778 149.152 391.027 149.614C391.259 150.024 413.946 191.803 419.319 239.081C419.373 239.597 419.017 240.059 418.501 240.113C418.465 240.095 418.43 240.095 418.394 240.095Z" fill="#39393B"/>
<path d="M418.234 243.227C417.842 243.227 417.486 242.978 417.362 242.586C409.337 218.743 398.252 201.501 390.369 191.234C381.828 180.095 375.102 174.543 375.031 174.49C374.639 174.17 374.568 173.583 374.906 173.191C375.227 172.8 375.814 172.728 376.205 173.067C376.49 173.298 383.127 178.778 391.792 190.059C399.782 200.451 410.992 217.889 419.106 241.999C419.266 242.48 419.017 243.013 418.519 243.173C418.43 243.209 418.341 243.227 418.234 243.227Z" fill="#39393B"/>
<path d="M418.074 231.43C418.056 231.43 418.038 231.43 418.02 231.43C417.504 231.412 417.113 230.967 417.148 230.451C419.123 191.697 439.942 151.928 440.138 151.518C440.387 151.056 440.938 150.896 441.401 151.127C441.864 151.358 442.024 151.928 441.793 152.39C441.579 152.782 420.956 192.195 419.017 230.54C418.981 231.038 418.572 231.43 418.074 231.43Z" fill="#39393B"/>
<path d="M418.305 239.348C418.234 239.348 418.181 239.348 418.109 239.33C417.611 239.223 417.291 238.725 417.398 238.227C422.451 215.202 432.238 198.547 439.569 188.618C447.522 177.835 454.177 172.586 454.462 172.373C454.871 172.052 455.458 172.124 455.761 172.533C456.081 172.942 456.01 173.529 455.6 173.832C455.529 173.885 448.821 179.188 441.01 189.775C433.803 199.544 424.177 215.949 419.213 238.618C419.124 239.063 418.732 239.348 418.305 239.348Z" fill="#39393B"/>
<path d="M472.238 337.747L470.707 341.804L469.746 344.384L466.971 351.75L465.992 354.331L463.145 361.911L462.184 364.473L449.942 396.964H383.074L370.832 364.473L369.871 361.911L367.024 354.331L366.045 351.75L363.269 344.384L362.308 341.804L360.778 337.747C359.728 334.953 361.792 331.982 364.764 331.982H468.269C471.223 331.982 473.287 334.953 472.238 337.747Z" fill="#0875F7"/>
<path d="M470.707 341.804L469.746 344.384H363.269L362.291 341.804H470.707Z" fill="#084FC7"/>
<path d="M466.953 351.75L465.992 354.33H367.006L366.045 351.75H466.953Z" fill="#084FC7"/>
<path d="M463.127 361.911L462.166 364.473H370.832L369.871 361.911H463.127Z" fill="#084FC7"/>
<path d="M398.59 419.259L394.889 431.217L343.269 597.587H333.18L365.903 434.615L368.999 419.259H398.59Z" fill="#39393B"/>
<path d="M500.12 597.587H490.031L436.899 426.288L434.711 419.259H464.302L465.049 422.996L500.12 597.587Z" fill="#39393B"/>
<path d="M478.679 501.484H354.052C351.686 501.484 349.764 499.562 349.764 497.195V495.22C349.764 492.854 351.686 490.932 354.052 490.932H478.661C481.028 490.932 482.949 492.854 482.949 495.22V497.195C482.967 499.562 481.045 501.484 478.679 501.484Z" fill="#585859"/>
<path d="M321.703 101.495C348.354 101.495 369.959 80.1606 369.959 53.8435C369.959 27.5264 348.354 6.19214 321.703 6.19214C295.051 6.19214 273.446 27.5264 273.446 53.8435C273.446 80.1606 295.051 101.495 321.703 101.495Z" fill="#CED3E6"/>
<path d="M321.703 95.3027C348.354 95.3027 369.959 73.9685 369.959 47.6514C369.959 21.3342 348.354 0 321.703 0C295.051 0 273.446 21.3342 273.446 47.6514C273.446 73.9685 295.051 95.3027 321.703 95.3027Z" fill="#0875F7"/>
<path d="M321.703 86.3882C343.362 86.3882 360.92 69.0452 360.92 47.6514C360.92 26.2577 343.362 8.91467 321.703 8.91467C300.044 8.91467 282.485 26.2577 282.485 47.6514C282.485 69.0452 300.044 86.3882 321.703 86.3882Z" fill="white"/>
<path d="M360.92 47.6514C360.92 48.6835 360.884 49.6977 360.795 50.7119C359.212 30.7831 342.272 15.0357 321.685 15.0357C301.098 15.0357 284.176 30.7831 282.574 50.7119C282.503 49.6977 282.45 48.6835 282.45 47.6514C282.45 26.2813 300.048 8.91467 321.667 8.91467C343.322 8.91467 360.92 26.2813 360.92 47.6514Z" fill="#CED3E6"/>
<path d="M321.703 51.6727C321.4 51.6727 321.098 51.5304 320.92 51.2812L301.685 25.694C301.365 25.2669 301.454 24.662 301.881 24.3417C302.308 24.0214 302.93 24.1103 303.251 24.5374L322.023 49.5019L343.358 40.2492C343.856 40.0357 344.425 40.2492 344.656 40.7474C344.87 41.2456 344.656 41.815 344.158 42.0285L322.112 51.5837C321.97 51.6549 321.827 51.6727 321.703 51.6727Z" fill="#39393B"/>
</svg>
